<?xml version="1.0" encoding="UTF-8" standalone="no"?>
<svg width="123px" height="22px" viewBox="0 0 123 22" version="1.1" xmlns="http://www.w3.org/2000/svg" xmlns:xlink="http://www.w3.org/1999/xlink" xmlns:sketch="http://www.bohemiancoding.com/sketch/ns">
    <!-- Generator: Sketch 3.3.3 (12081) - http://www.bohemiancoding.com/sketch -->
    <title>koombea_logo</title>
    <desc>Created with Sketch.</desc>
    <defs></defs>
    <g id="HomePage" stroke="none" stroke-width="1" fill="none" fill-rule="evenodd" sketch:type="MSPage">
        <g id="Home02" sketch:type="MSArtboardGroup" transform="translate(-609.000000, -2083.000000)">
            <g id="Product-by:-+-koombea_logo-Copy" sketch:type="MSLayerGroup" transform="translate(548.000000, 2083.000000)">
                <g id="Product-by:-+-koombea_logo" sketch:type="MSShapeGroup">
                    <g id="koombea_logo" transform="translate(61.000000, 0.000000)">
                        <path d="M11.0873356,5.07375 C7.96074161,5.07375 5.42685906,7.61000549 5.42685906,10.7385082 C5.42685906,13.866185 7.96074161,16.4012015 11.0873356,16.4012015 C14.213104,16.4012015 16.7473993,13.866185 16.7473993,10.7385082 C16.7473993,7.61000549 14.213104,5.07375 11.0873356,5.07375 L11.0873356,5.07375 Z M11.0873356,2.69195788 L12.9558624,4.53560623 L15.5244161,3.99539744 L16.0997919,6.55808516 L18.5527752,7.49353846 L17.6529765,9.95958333 L19.2107013,12.0733361 L17.1205268,13.6617482 L17.289755,16.2818434 L14.6729094,16.4879322 L13.3991577,18.7842326 L11.0873356,17.5419176 L8.77510067,18.7842326 L7.50134899,16.4879322 L4.88491611,16.2818434 L5.05373154,13.6617482 L2.9639698,12.0733361 L4.52169463,9.95958333 L3.62148322,7.49353846 L6.07405369,6.55808516 L6.65025503,3.99539744 L9.21798322,4.53560623 L11.0873356,2.69195788 L11.0873356,2.69195788 Z" id="Fill-3" fill="#51B689"></path>
                        <path d="M11.0869228,1.71561722 C6.11450336,1.71561722 2.07077517,5.76264011 2.07077517,10.7385082 C2.07077517,15.7135504 6.11450336,19.7605733 11.0869228,19.7605733 C16.0585168,19.7605733 20.1034832,15.7135504 20.1034832,10.7385082 C20.1034832,5.76264011 16.0585168,1.71561722 11.0869228,1.71561722 L11.0869228,1.71561722 Z M11.0869228,21.419196 C5.20108389,21.419196 0.412338926,16.6275275 0.412338926,10.7385082 C0.412338926,4.848663 5.20108389,0.0569945055 11.0869228,0.0569945055 C16.972349,0.0569945055 21.7619195,4.848663 21.7619195,10.7385082 C21.7619195,16.6275275 16.972349,21.419196 11.0869228,21.419196 L11.0869228,21.419196 Z" id="Fill-4" fill="#51B689"></path>
                        <path d="M11.0873356,13.1380595 C9.76446644,13.1380595 8.68842282,12.061359 8.68842282,10.7385082 C8.68842282,9.4148315 9.76446644,8.33813095 11.0873356,8.33813095 C12.4097919,8.33813095 13.4854228,9.4148315 13.4854228,10.7385082 C13.4854228,12.061359 12.4097919,13.1380595 11.0873356,13.1380595 L11.0873356,13.1380595 Z M11.0873356,7.20856593 C9.14203691,7.20856593 7.56037248,8.79243498 7.56037248,10.7385082 C7.56037248,12.6845815 9.14203691,14.2676245 11.0873356,14.2676245 C13.0318087,14.2676245 14.6138859,12.6845815 14.6138859,10.7385082 C14.6138859,8.79243498 13.0318087,7.20856593 11.0873356,7.20856593 L11.0873356,7.20856593 Z" id="Fill-5" fill="#51B689"></path>
                        <path d="M40.1462919,16.7134322 C40.5309765,17.0657244 40.9668423,17.3246777 41.449349,17.4882271 C41.933094,17.6530156 42.4073456,17.7343773 42.875406,17.7343773 C43.3442919,17.7343773 43.8177181,17.6530156 44.3027013,17.4882271 C44.7843826,17.3246777 45.2243758,17.0673764 45.6177282,16.7262353 C46.503906,15.9225302 46.9451376,14.7529038 46.9451376,13.2272683 C46.9451376,11.7532582 46.503906,10.60263 45.6177282,9.78529579 C44.8809664,9.11251282 43.969198,8.77591484 42.8886141,8.77591484 C41.1179094,8.77591484 39.8862584,9.5725989 39.2002651,11.162663 C38.9522013,11.7375641 38.8283758,12.4309973 38.8283758,13.2392454 C38.8283758,14.0528626 38.9522013,14.7483608 39.2002651,15.3203709 C39.4442013,15.89775 39.7603691,16.3574231 40.1462919,16.7134322 L40.1462919,16.7134322 Z M42.8886141,6.73319872 C44.7905738,6.73319872 46.3136275,7.33288004 47.4610772,8.52893864 C48.6101779,9.74316941 49.1834899,11.3187784 49.1834899,13.2557656 C49.1834899,15.1890357 48.6101779,16.7662967 47.4610772,17.9797015 C46.3136275,19.1778251 44.7905738,19.7742024 42.8886141,19.7742024 C40.9697315,19.7742024 39.4442013,19.1778251 38.3136745,17.9797015 C37.1658121,16.7836429 36.5929128,15.2051429 36.5929128,13.2557656 C36.5929128,11.3022582 37.1658121,9.72664927 38.3136745,8.52893864 C39.4442013,7.33288004 40.9697315,6.73319872 42.8886141,6.73319872 L42.8886141,6.73319872 Z" id="Fill-6" fill="#3A3B38"></path>
                        <path d="M53.7580168,16.7134322 C54.1418758,17.0657244 54.5777416,17.3246777 55.0614866,17.4882271 C55.5435805,17.6530156 56.0186577,17.7343773 56.4871309,17.7343773 C56.9551913,17.7343773 57.4302685,17.6530156 57.9131879,17.4882271 C58.3952819,17.3246777 58.8352752,17.0673764 59.2286275,16.7262353 C60.1135671,15.9225302 60.5560369,14.7529038 60.5560369,13.2272683 C60.5560369,11.7532582 60.1135671,10.60263 59.2286275,9.78529579 C58.491453,9.11251282 57.5800973,8.77591484 56.4999262,8.77591484 C54.7296342,8.77591484 53.4996342,9.5725989 52.8107517,11.162663 C52.5635134,11.7375641 52.4413389,12.4309973 52.4413389,13.2392454 C52.4413389,14.0528626 52.5635134,14.7483608 52.8107517,15.3203709 C53.0571644,15.89775 53.3712685,16.3574231 53.7580168,16.7134322 L53.7580168,16.7134322 Z M56.4999262,6.73319872 C58.4014732,6.73319872 59.9257651,7.33288004 61.0732148,8.52893864 C62.2223154,9.74316941 62.794802,11.3187784 62.794802,13.2557656 C62.794802,15.1890357 62.2223154,16.7662967 61.0732148,17.9797015 C59.9257651,19.1778251 58.4014732,19.7742024 56.4999262,19.7742024 C54.5810436,19.7742024 53.0571644,19.1778251 51.9258121,17.9797015 C50.7775369,16.7836429 50.2042248,15.2051429 50.2042248,13.2557656 C50.2042248,11.3022582 50.7775369,9.72664927 51.9258121,8.52893864 C53.0571644,7.33288004 54.5810436,6.73319872 56.4999262,6.73319872 L56.4999262,6.73319872 Z" id="Fill-7" fill="#3A3B38"></path>
                        <path d="M101.266973,12.2191264 C101.348698,11.6372042 101.522054,11.0643681 101.757322,10.597261 C102.368607,9.3921163 103.469416,8.62640751 104.931795,8.62640751 C105.849755,8.62640751 106.65297,8.88907784 107.292322,9.46397894 C107.970886,10.0752244 108.418309,11.0598251 108.599094,12.2191264 L101.266973,12.2191264 L101.266973,12.2191264 Z M105.025903,17.7826987 C102.438775,17.6331914 101.315265,15.5446319 101.315265,13.9999982 L109.654087,13.9999982 C109.654087,13.9999982 110.274866,13.8934432 110.476289,13.6799203 C110.68349,13.4680495 110.784201,13.2053791 110.784201,12.8935614 C110.784201,11.1729881 110.284359,9.72664927 109.283849,8.56156593 C108.216473,7.31553388 106.766477,6.69065934 104.931795,6.69065934 C102.99599,6.69065934 101.505544,7.36633333 100.456742,8.71148626 C99.5214463,9.90630586 99.0542114,11.4092262 99.0542114,13.2157042 C99.0542114,15.2993077 99.6126644,16.9042399 100.728745,18.037109 C101.737923,19.0646621 103.162329,19.6804505 104.919413,19.7742024 C109.403547,19.7742024 110.549758,16.1686804 110.549758,16.1686804 C110.835383,15.1898617 110.118846,15.3249139 109.356081,15.2848526 C108.757591,15.2547033 108.537181,15.7920211 108.537181,15.7920211 C107.326168,17.9379881 105.025903,17.7826987 105.025903,17.7826987 L105.025903,17.7826987 Z" id="Fill-8" fill="#3A3B38"></path>
                        <path d="M82.351802,8.38397436 C81.5964664,7.36633333 80.4927685,6.90666026 79.2231443,6.85833883 C77.9510436,6.82282051 76.9509463,7.17222161 76.005745,7.84293956 C75.2962248,8.38397436 74.9094765,8.8965119 74.6523322,9.30992857 C74.2527886,8.55702289 73.9593221,8.25718223 73.4355403,7.76529487 C72.5406946,6.9905 71.7713255,6.93598352 70.9388054,6.85833883 C69.3625067,6.80093132 67.8419295,7.43117491 66.7601074,8.76435073 L66.7601074,8.00607601 C66.7601074,7.65006685 66.4691174,7.35931227 66.1133255,7.35931227 L65.1681242,7.35931227 C64.8123322,7.35931227 64.5213423,7.65006685 64.5213423,8.00607601 L64.5213423,19.1274386 C64.5213423,19.4850998 64.8123322,19.7742024 65.1681242,19.7742024 L66.1133255,19.7742024 C66.4691174,19.7742024 66.7601074,19.4850998 66.7601074,19.1274386 L66.7601074,11.9308498 C66.7601074,11.382794 66.9912483,10.8983407 67.0903087,10.7760916 C67.9575,9.47843407 68.9802987,8.92294414 70.299453,8.92294414 C71.2326846,8.92294414 71.8864832,9.18313645 72.257547,9.69732601 C72.6244832,10.2148196 72.8102215,10.9920925 72.8102215,12.0241886 L72.8102215,19.1274386 C72.8102215,19.4850998 73.0991477,19.7742024 73.4598926,19.7742024 L74.4001409,19.7742024 C74.7571711,19.7742024 75.0456846,19.4850998 75.0456846,19.1274386 L75.0456846,11.8123178 C75.0456846,11.4476355 75.1422685,11.2328736 75.1884966,11.1556419 C76.0849933,9.66841575 77.2171711,8.92294414 78.590396,8.92294414 C79.5232148,8.92294414 80.1728859,9.18313645 80.5435369,9.69732601 C80.9137752,10.2148196 81.0962114,10.9920925 81.0962114,12.0241886 L81.0962114,19.1274386 C81.0962114,19.4850998 81.3896779,19.7742024 81.7454698,19.7742024 L82.6886074,19.7742024 C83.0485268,19.7742024 83.3325,19.4850998 83.3325,19.1274386 L83.3325,11.5814487 C83.3325,10.3180705 83.0080772,9.25210806 82.351802,8.38397436" id="Fill-9" fill="#3A3B38"></path>
                        <path d="M120.349309,15.4289908 C120.346419,15.5099396 120.343943,15.784587 120.180493,16.00637 C119.810255,16.5193205 119.364483,16.9632995 118.78498,17.2937024 C118.119211,17.6703617 117.258211,18.0610632 116.488842,18.0610632 C114.748268,18.0610632 113.652826,17.3473929 113.703594,15.8386905 C113.729185,15.0758727 114.284748,14.6323068 114.938547,14.3365962 C115.593171,14.0429505 116.506178,13.8934432 117.670138,13.8934432 L120.012091,13.8934432 C120.012091,13.8934432 120.349309,13.8860092 120.349309,14.2065 L120.349309,15.4289908 L120.349309,15.4289908 Z M117.096,8.68588004 C117.096,8.68588004 118.042852,8.5797381 119.040886,9.31984066 C119.040886,9.31984066 120.223419,10.03062 120.324956,11.5624505 C120.335275,11.6665275 120.320003,12.0989423 119.939859,12.0989423 L117.374195,12.0989423 C115.520527,12.0989423 114.09447,12.4747756 113.096849,13.2272683 C112.177651,13.9198755 111.718671,14.8706099 111.718671,16.0827756 C111.718671,17.1995375 112.186732,18.0771703 112.974674,18.7681255 C113.729597,19.4223233 114.598027,19.7742024 115.727315,19.7742024 C118.408138,19.7742024 119.834195,18.5591456 120.349309,18.1238397 L120.349309,19.0043636 C120.349309,19.3628507 120.639886,19.6540183 120.993614,19.6540183 L121.941292,19.6540183 C122.29956,19.6540183 122.587661,19.3628507 122.587661,19.0043636 L122.587661,11.5814487 C122.587661,10.2532289 122.178211,9.19511355 121.359312,8.30715568 C120.771966,7.65750092 119.31454,6.78275916 117.472842,6.78275916 L117.472842,6.78441117 C117.472842,6.78441117 114.055258,6.36851648 112.398473,9.57548993 C112.398473,9.57548993 111.998517,10.3180705 112.880154,10.3618489 C113.676765,10.4010842 114.277732,10.4940101 114.607107,9.89845879 C115.109013,9.27523626 115.951852,8.68588004 117.096,8.68588004 L117.096,8.68588004 Z" id="Fill-10" fill="#3A3B38"></path>
                        <path d="M95.4686376,15.1733416 C94.8457953,16.8484844 93.6001107,17.6860559 91.7315839,17.6860559 C90.8928725,17.6860559 87.8459396,17.3420238 87.8459396,13.194641 C87.8459396,9.77249267 90.3307047,8.82464927 91.7315839,8.82464927 C92.9438356,8.82464927 93.9129765,9.19511355 94.6315772,9.9331511 C95.3869128,10.7347912 95.7649933,11.843293 95.7649933,13.2557656 C95.7649933,13.976457 95.6655201,14.6161996 95.4686376,15.1733416 L95.4686376,15.1733416 Z M96.1315168,8.43229579 C95.0018154,7.29901374 93.6413859,6.73319872 92.0489899,6.73319872 C90.4619597,6.73319872 89.0577785,7.35931227 87.8459396,8.60534432 L87.8459396,3.41058425 L87.8459396,3.40604121 L87.8459396,1.98902564 C87.8459396,1.63260348 87.5570134,1.3414359 87.1962685,1.3414359 L86.2547819,1.3414359 C85.8981644,1.3414359 85.6071745,1.63260348 85.6071745,1.98902564 L85.6071745,19.0043636 C85.6071745,19.3628507 85.8981644,19.6540183 86.2547819,19.6540183 L87.1962685,19.6540183 C87.5570134,19.6540183 87.8459396,19.3628507 87.8459396,19.0043636 L87.8459396,18.1048416 C89.0049463,19.2467967 90.4574195,19.7742024 92.0374329,19.7742024 C93.6215738,19.7742024 94.9869564,19.2187125 96.1315168,18.1019505 C97.3780268,16.8703736 98.0029329,15.2584203 98.0029329,13.2557656 C98.0029329,11.2878031 97.3780268,9.67584982 96.1315168,8.43229579 L96.1315168,8.43229579 Z" id="Fill-11" fill="#3A3B38"></path>
                        <path d="M35.7591544,18.0015907 L30.5440369,12.2054973 L30.5584832,12.1910421 L35.0389027,8.19316667 C35.064906,8.16756044 35.0880201,8.13947619 35.1070067,8.10808791 C35.241151,7.90117308 35.2180369,7.6219826 35.0360134,7.44315201 L34.4841644,6.89592216 C34.2748993,6.68859432 33.9389195,6.69396337 33.7337819,6.90211722 L28.4361141,11.726826 L28.4361141,1.09074267 C28.4361141,0.727299451 28.1418221,0.431175824 27.7798389,0.431175824 L26.8168893,0.431175824 C26.4524295,0.431175824 26.1606141,0.727299451 26.1606141,1.09074267 L26.1606141,18.6186181 C26.1606141,18.9808223 26.4544933,19.278185 26.8168893,19.278185 L27.7798389,19.278185 C28.1451242,19.278185 28.4361141,18.9808223 28.4361141,18.6186181 L28.4361141,13.3854487 L33.9876242,19.618087 C34.2373389,19.8229368 34.6051007,19.8328489 34.865547,19.621804 L35.4826107,19.1220696 L35.6572047,18.9816484 C35.7269597,18.9250668 35.7822685,18.8573342 35.8235436,18.7842326 C35.9614027,18.5417995 35.9440671,18.2308077 35.7591544,18.0015907" id="Fill-12" fill="#3A3B38"></path>
                    </g>
                </g>
            </g>
        </g>
    </g>
</svg>