<?xml version="1.0" encoding="UTF-8" standalone="no"?>
<svg width="189px" height="47px" viewBox="0 0 189 47" version="1.1" xmlns="http://www.w3.org/2000/svg" xmlns:xlink="http://www.w3.org/1999/xlink" xmlns:sketch="http://www.bohemiancoding.com/sketch/ns">
    <!-- Generator: Sketch 3.3.3 (12081) - http://www.bohemiancoding.com/sketch -->
    <title>Group</title>
    <desc>Created with Sketch.</desc>
    <defs>
        <linearGradient x1="50%" y1="0%" x2="50%" y2="100%" id="linearGradient-1">
            <stop stop-color="#FFFFFF" offset="0%"></stop>
            <stop stop-color="#F0F0F0" offset="100%"></stop>
        </linearGradient>
        <filter x="-50%" y="-50%" width="200%" height="200%" filterUnits="objectBoundingBox" id="filter-2">
            <feOffset dx="0" dy="1" in="SourceAlpha" result="shadowOffsetOuter1"></feOffset>
            <feGaussianBlur stdDeviation="0" in="shadowOffsetOuter1" result="shadowBlurOuter1"></feGaussianBlur>
            <feColorMatrix values="0 0 0 0 0   0 0 0 0 0   0 0 0 0 0  0 0 0 0.105 0" in="shadowBlurOuter1" type="matrix" result="shadowMatrixOuter1"></feColorMatrix>
            <feMerge>
                <feMergeNode in="shadowMatrixOuter1"></feMergeNode>
                <feMergeNode in="SourceGraphic"></feMergeNode>
            </feMerge>
        </filter>
        <linearGradient x1="100%" y1="0%" x2="29.884984%" y2="133.567624%" id="linearGradient-3">
            <stop stop-color="#F2826F" offset="0%"></stop>
            <stop stop-color="#5F50E1" offset="100%"></stop>
        </linearGradient>
    </defs>
    <g id="HomePage" stroke="none" stroke-width="1" fill="none" fill-rule="evenodd" sketch:type="MSPage">
        <g id="Home02" sketch:type="MSArtboardGroup" transform="translate(-140.000000, -17.000000)">
            <g id="Group" sketch:type="MSLayerGroup" transform="translate(140.000000, 17.000000)">
                <rect id="Rectangle-8-Copy" fill="url(#linearGradient-1)" filter="url(#filter-2)" sketch:type="MSShapeGroup" x="0" y="0" width="44.9795918" height="45.220339" rx="6.20408163"></rect>
                <path d="M17.0477546,26.6476103 C16.8206,26.2360289 16.6919903,25.8827549 16.329545,25.8827549 L15.9871427,25.8827549 C14.1498621,25.8827549 12.6466326,24.3393247 12.6466326,22.45291 C12.6466326,20.5664954 14.1498621,19.0230652 15.9871427,19.0230652 L20.9979079,19.0230652 C22.8335182,19.0230652 24.338418,20.5664954 24.338418,22.45291 C24.338418,23.3961174 25.0900327,24.1678324 26.008673,24.1678324 C26.9273133,24.1678324 27.6789281,23.3961174 27.6789281,22.45291 C27.6789281,21.8526872 27.6121179,21.2867628 27.4617949,20.7379876 C27.3866334,20.4327314 27.2897587,20.1377648 27.1761813,19.8513727 C27.1728408,19.8427981 27.1661598,19.8325086 27.1628193,19.822219 C26.84046,19.0179204 26.3777994,18.2925082 25.7982209,17.6802809 C25.7781778,17.6579869 25.7547943,17.6408377 25.7347512,17.6219736 C24.9731149,16.8331092 24.0277505,16.2311715 22.9688088,15.9019064 C22.3341119,15.6961157 21.6827124,15.5932203 20.9979079,15.5932203 L15.9871427,15.5932203 C12.295879,15.5932203 9.30612245,18.6629315 9.30612245,22.45291 C9.30612245,26.2428886 12.295879,29.3125997 15.9871427,29.3125997 L18.4925253,29.3125997 C18.9535157,29.3125997 19.0253366,29.084515 18.6862749,28.7655395 C18.0365456,28.1515972 17.482021,27.4364746 17.0477546,26.6476103 Z M29.3491831,15.5932203 L26.827098,15.5932203 C26.3661076,15.5932203 26.2959569,15.8178752 26.6366889,16.1351358 C27.2880884,16.7439333 27.8476238,17.4590559 28.2802199,18.253065 C28.5057043,18.6663613 28.6710596,19.0230652 28.9984296,19.0230652 L29.3491831,19.0230652 C31.1847934,19.0230652 32.6896933,20.5664954 32.6896933,22.45291 C32.6896933,24.3393247 31.1847934,25.8827549 29.3491831,25.8827549 L24.338418,25.8827549 C22.5011374,25.8827549 20.9979079,24.3393247 20.9979079,22.45291 C20.9979079,21.5097027 20.2462931,20.7379876 19.3276528,20.7379876 C18.4090125,20.7379876 17.6573977,21.5097027 17.6573977,22.45291 C17.6573977,23.6362065 17.9580436,24.7509061 18.4591202,25.7112626 C18.5593355,25.8999041 18.6762533,26.0885456 18.7764686,26.2600378 C18.910089,26.4658285 19.0437094,26.6373207 19.1773298,26.808813 C19.3276528,26.9974544 19.493008,27.1860959 19.6784064,27.3575881 C19.8621344,27.5462296 20.0458625,27.7177219 20.2462931,27.8720649 C20.3632109,27.9749602 20.4801288,28.0607063 20.6120789,28.1464525 C21.6827124,28.8838691 22.9688088,29.3125997 24.338418,29.3125997 L29.3491831,29.3125997 C33.0404468,29.3125997 36.0302034,26.2428886 36.0302034,22.45291 C36.0302034,18.6629315 33.0404468,15.5932203 29.3491831,15.5932203 Z" id="Fill-726-Copy" fill="url(#linearGradient-3)" sketch:type="MSShapeGroup" transform="translate(22.668163, 22.452910) rotate(-45.000000) translate(-22.668163, -22.452910) "></path>
                <path d="M114.207061,27.8929651 C114.207061,32.1923936 117.226898,32.6786385 118.711224,32.6786385 C119.043918,32.6786385 119.299837,32.6530467 119.453388,32.6274549 L119.453388,31.0663528 C119.223061,31.1175365 119.043918,31.1175365 118.864776,31.1175365 C117.866694,31.1175365 115.947306,30.7080671 115.947306,27.7138222 L115.947306,21.2646793 L119.197469,21.2646793 L119.197469,19.8059447 L115.947306,19.8059447 L115.947306,16.146312 L114.232653,16.146312 L114.232653,19.8059447 L112.518,19.8059447 L112.518,21.2646793 L114.207061,21.2646793 L114.207061,27.8929651 Z M121.193633,26.0759447 C121.193633,29.9659038 124.213469,32.8833732 127.975469,32.8833732 C131.737469,32.8833732 134.782898,29.9659038 134.782898,26.0759447 C134.782898,22.262761 131.737469,19.3964753 127.975469,19.3964753 C124.213469,19.3964753 121.193633,22.262761 121.193633,26.0759447 L121.193633,26.0759447 Z M122.985061,26.0759447 C122.985061,23.1584753 125.211551,20.9575773 127.975469,20.9575773 C130.739388,20.9575773 132.991469,23.1584753 132.991469,26.0759447 C132.991469,29.0957814 130.739388,31.2966793 127.975469,31.2966793 C125.211551,31.2966793 122.985061,29.0957814 122.985061,26.0759447 L122.985061,26.0759447 Z" id="to-copy-3" opacity="0.4" fill="#FFFFFF" sketch:type="MSShapeGroup"></path>
                <path d="M53.8785714,31.7966102 L65.8299592,31.7966102 L65.8299592,27.9578347 L58.3571429,27.9578347 L58.3571429,13.4984469 L53.8785714,13.4984469 L53.8785714,31.7966102 Z M68.0052653,31.7966102 L72.4838367,31.7966102 L72.4838367,13.4984469 L68.0052653,13.4984469 L68.0052653,31.7966102 Z M76.3226122,31.7966102 L80.8011837,31.7966102 L80.8011837,23.2745285 C80.8011837,22.1228959 80.596449,20.1523245 80.596449,20.1523245 L80.6476327,20.1523245 C80.6476327,20.1523245 81.4665714,22.0717122 82.1831429,23.2745285 L87.2759184,31.7966102 L91.7800816,31.7966102 L91.7800816,13.4984469 L87.3015102,13.4984469 L87.3015102,22.0461204 C87.3015102,23.197753 87.5062449,25.1683245 87.5062449,25.1683245 L87.4550612,25.1683245 C87.4550612,25.1683245 86.6361224,23.2489367 85.919551,22.0461204 L80.8523673,13.4984469 L76.3226122,13.4984469 L76.3226122,31.7966102 Z M95.6188571,31.7966102 L100.097429,31.7966102 L100.097429,24.3749775 L101.940041,24.3749775 L105.804408,31.7966102 L110.820408,31.7966102 L105.599673,22.3020387 L105.599673,22.2508551 L110.538898,13.4984469 L105.727633,13.4984469 L101.940041,20.5617938 L100.097429,20.5617938 L100.097429,13.4984469 L95.6188571,13.4984469 L95.6188571,31.7966102 Z" id="LINK" fill="#FFFFFF" sketch:type="MSShapeGroup"></path>
                <path d="M136.379673,29.4933449 C138.119918,31.2335898 140.627918,32.1037122 143.007959,32.1037122 C147.230612,32.1037122 149.508286,29.467753 149.508286,26.3967326 C149.508286,20.6129775 141.421265,21.2271816 141.421265,18.6168143 C141.421265,17.874651 142.009878,17.3116306 143.366245,17.3116306 C144.799388,17.3116306 146.386082,18.028202 147.409755,18.9239163 L149.303551,15.2642836 C147.716857,13.8567326 145.618327,13.1913449 143.57098,13.1913449 C139.732204,13.1913449 136.942694,15.4178347 136.942694,18.7959571 C136.942694,24.5285285 145.029714,24.1190591 145.029714,26.7038347 C145.029714,27.4204061 144.389918,27.9834265 143.135918,27.9834265 C141.498041,27.9834265 139.757796,26.9853449 138.734122,26.0896306 L136.379673,29.4933449 Z M152.34898,31.7966102 L156.827551,31.7966102 L156.827551,13.4984469 L152.34898,13.4984469 L152.34898,31.7966102 Z M164.607469,31.7966102 L169.086041,31.7966102 L169.086041,17.3372224 L174.639469,17.3372224 L174.639469,13.4984469 L159.054041,13.4984469 L159.054041,17.3372224 L164.607469,17.3372224 L164.607469,31.7966102 Z M176.865959,31.7966102 L188.689388,31.7966102 L188.689388,27.9578347 L181.344531,27.9578347 L181.344531,24.5029367 L186.923551,24.5029367 L186.923551,20.6641612 L181.344531,20.6641612 L181.344531,17.3372224 L188.331102,17.3372224 L188.331102,13.4984469 L176.865959,13.4984469 L176.865959,31.7966102 Z" id="Type-something-Copy-6" fill="#FFFFFF" sketch:type="MSShapeGroup"></path>
            </g>
        </g>
    </g>
</svg>